<svg width="430" height="430" viewBox="0 0 430 430" fill="none" xmlns="http://www.w3.org/2000/svg">
<rect width="430" height="430" fill="black"/>
<path fill-rule="evenodd" clip-rule="evenodd" d="M215 315H215V313H215V315Z" fill="white"/>
<circle cx="215" cy="215" r="104" transform="rotate(-167.182 215 215)" fill="#FF0000"/>
<path d="M199.113 236.19L200.408 229.931C201.832 223.046 204.162 217.871 207.399 214.407C210.657 210.838 215.414 208.232 221.67 206.589C225.735 205.472 228.855 204.159 231.03 202.651C233.309 201.164 234.784 198.804 235.453 195.57C236.294 191.501 235.462 187.848 232.954 184.61C230.574 181.289 226.862 179.107 221.819 178.064C217.196 177.107 213.239 177.703 209.946 179.85C206.78 181.915 204.776 184.982 203.934 189.05L182.659 184.649C184.645 175.052 189.636 167.871 197.633 163.107C205.735 158.364 215.355 157.145 226.491 159.449C237.523 161.731 245.827 166.603 251.404 174.067C256.982 181.53 258.864 189.643 257.051 198.406C255.649 205.187 253.171 210.277 249.62 213.676C246.09 216.971 241.271 219.347 235.163 220.803C226.485 223.033 221.466 227.434 220.107 234.006L218.812 240.265L199.113 236.19ZM191.689 268.106L196.221 246.199L217.496 250.6L212.964 272.507L191.689 268.106Z" fill="black"/>
</svg>
